# xmcd
#
# Track frame offsets: 
#        150
#        18248
#        31033
#        50528
#        68893
#        85493
#
# Disc length: 1320 seconds
#
# Revision: 0
# Processed by: cddbd v1.5.2PL0 Copyright (c) Steve Scherf et al.
# Submitted via: ExactAudioCopy v0.99pb5
#
DISCID=43052606
DTITLE=Frankie Chavez - Frankie Chavez
DYEAR=2010
DGENRE=Blues
TTITLE0=This Train Is Gone
TTITLE1=Time Machine
TTITLE2=Slow Dance
TTITLE3=I Don't Belong
TTITLE4=D Variations
TTITLE5=The Search
EXTD=
EXTT0=
EXTT1=
EXTT2=
EXTT3=
EXTT4=
EXTT5=
PLAYORDER=
